<?xml version="1.0" standalone="no"?>
<!DOCTYPE svg PUBLIC "-//W3C//DTD SVG 20010904//EN"
 "http://www.w3.org/TR/2001/REC-SVG-20010904/DTD/svg10.dtd">
<svg version="1.0" xmlns="http://www.w3.org/2000/svg"
 width="512.000000pt" height="512.000000pt" viewBox="0 0 512.000000 512.000000"
 preserveAspectRatio="xMidYMid meet">
<metadata>
Created by potrace 1.11, written by Peter Selinger 2001-2013
</metadata>
<g transform="translate(0.000000,512.000000) scale(0.100000,-0.100000)"
fill="#000000" stroke="none">
<path d="M4059 4741 c-20 -20 -29 -39 -29 -61 0 -43 47 -90 90 -90 22 0 41 9
61 29 20 20 29 39 29 61 0 22 -9 41 -29 61 -20 20 -39 29 -61 29 -22 0 -41 -9
-61 -29z"/>
<path d="M2390 4648 c-32 -35 -26 -81 16 -128 l36 -40 -36 -40 c-42 -47 -48
-93 -16 -128 33 -35 82 -29 130 15 l41 36 32 -30 c58 -55 94 -61 136 -22 34
32 28 81 -15 129 l-36 40 36 40 c62 69 40 150 -41 150 -29 0 -45 -8 -75 -37
l-37 -36 -41 36 c-48 44 -97 50 -130 15z"/>
<path d="M441 4382 c-59 -22 -140 -98 -171 -158 l-25 -49 0 -1815 0 -1815 22
-45 c29 -59 90 -120 150 -151 l48 -24 495 0 495 0 49 25 c26 14 69 48 95 76
85 93 80 42 81 927 0 430 4 784 8 788 4 3 43 21 87 38 44 18 98 40 120 50 22
10 66 29 99 42 69 28 97 69 80 117 -11 31 -18 35 -229 123 l-160 67 -5 798 -5
799 -24 47 c-31 61 -91 121 -149 150 l-47 23 -485 2 c-435 2 -490 0 -529 -15z
m1041 -180 l33 -32 5 -840 c6 -969 -11 -854 130 -912 47 -20 95 -39 108 -43
12 -3 22 -9 22 -13 0 -4 -49 -27 -108 -51 -59 -24 -117 -55 -129 -68 l-23 -24
0 -811 c0 -558 -3 -822 -11 -847 -6 -20 -23 -45 -37 -56 -26 -19 -43 -20 -508
-20 -518 0 -517 0 -545 53 -12 21 -14 327 -14 1828 l0 1802 25 27 c14 15 34
31 45 36 11 4 235 7 497 6 l478 -2 32 -33z"/>
<path d="M868 4065 c-69 -25 -126 -69 -169 -131 -110 -160 -52 -368 129 -460
46 -24 69 -28 131 -29 93 0 152 25 223 96 69 68 92 125 92 224 0 69 -4 87 -28
130 -64 113 -161 177 -275 181 -36 1 -82 -4 -103 -11z m189 -173 c44 -31 62
-76 59 -143 -5 -101 -69 -156 -173 -146 -96 10 -137 57 -138 157 0 75 22 116
77 143 46 22 137 17 175 -11z"/>
<path d="M910 3260 c-10 -10 -31 -39 -46 -62 -15 -24 -46 -72 -69 -108 -177
-272 -272 -431 -270 -452 1 -13 3 -29 4 -35 0 -7 14 -19 31 -28 24 -13 87 -15
399 -15 255 0 378 4 395 11 27 13 49 60 39 87 -3 9 -89 149 -191 311 -127 200
-194 296 -210 302 -36 14 -60 11 -82 -11z m110 -302 c29 -46 75 -118 102 -160
l48 -78 -211 0 c-165 0 -209 3 -203 13 4 6 24 37 44 67 20 30 39 60 41 65 10
24 112 175 119 175 3 0 31 -37 60 -82z"/>
<path d="M759 2343 c-29 -18 -199 -313 -199 -345 1 -13 12 -41 25 -63 14 -22
32 -53 41 -70 56 -104 120 -205 134 -211 25 -12 362 -14 391 -3 19 7 45 42 90
121 35 61 76 131 91 157 30 51 35 87 14 116 -7 11 -24 40 -38 65 -90 163 -131
229 -146 236 -9 4 -98 8 -198 10 -146 2 -185 -1 -205 -13z m303 -149 c17 -5
118 -170 118 -193 0 -12 -23 -56 -77 -149 -14 -23 -34 -44 -46 -47 -39 -8
-206 0 -216 10 -5 6 -19 27 -30 48 -12 20 -30 54 -42 75 -11 20 -25 41 -30 46
-8 9 29 84 87 177 l22 35 98 1 c55 1 107 -1 116 -3z"/>
<path d="M665 1334 l-25 -27 0 -267 c0 -249 1 -269 19 -291 l19 -24 276 -3
276 -3 25 27 25 27 0 267 c0 249 -1 269 -19 291 l-19 24 -276 3 -276 3 -25
-27z m455 -294 l0 -160 -160 0 -160 0 0 160 0 160 160 0 160 0 0 -160z"/>
<path d="M4407 4226 c-57 -21 -113 -72 -145 -131 -22 -41 -22 -150 0 -191 23
-42 79 -99 120 -120 43 -24 151 -25 193 -2 124 66 177 206 119 314 -27 52 -72
97 -117 120 -42 22 -125 27 -170 10z m135 -164 c15 -15 20 -75 9 -104 -19 -51
-131 -47 -145 5 -14 53 -1 95 34 110 20 8 90 1 102 -11z"/>
<path d="M1867 3816 c-15 -14 -27 -34 -27 -46 0 -29 26 -76 45 -84 9 -3 520
-6 1136 -6 1242 0 1176 4 1204 -64 13 -30 15 -198 15 -1186 l0 -1150 -1174 0
c-1172 0 -1173 0 -1200 -21 -35 -28 -36 -80 -1 -114 l24 -25 606 0 c602 0 606
0 595 -20 -6 -11 -28 -29 -50 -40 -38 -19 -59 -20 -595 -20 l-556 0 -25 -27
c-21 -23 -25 -35 -20 -63 12 -73 -16 -70 598 -70 617 0 618 0 707 70 54 43 84
81 106 134 l15 36 766 0 765 0 -2 -117 c-1 -81 -6 -127 -16 -146 -30 -60 46
-57 -1488 -57 l-1406 0 -25 -27 c-21 -23 -25 -35 -20 -63 3 -19 15 -43 27 -53
20 -16 98 -17 1448 -15 l1426 3 42 23 c68 36 114 83 144 145 27 57 27 64 29
236 1 162 -1 180 -19 202 l-19 24 -261 3 -261 3 -2 1172 -3 1172 -23 43 c-29
55 -89 115 -144 144 l-43 23 -1146 3 -1146 2 -26 -24z"/>
</g>
</svg>
